# xmcd
#
# Track frame offsets:
# 150
# 11250
# 23100
# 36442
# 48469
# 58431
# 73127
# 91298
# 104174
# 117602
# 130457
#
# Disc length: 1947 seconds
#
#
# Revision: 0
# Processed by: cddbd v1.5.2PL0 Copyright (c) Steve Scherf et al.
# Submitted via: FreeRIP 2.951 
#
DISCID=a707990b
DTITLE=The Ian Fays - The Damon Lessons
DYEAR=2005
DGENRE=Indie
TTITLE0=Empty Alcohol Bottle
TTITLE1=The Dance Song
TTITLE2=Pink Sheets
TTITLE3=I Lifted Myself Up
TTITLE4=Peppermint Schnapps
TTITLE5=The Boyfriend Song
TTITLE6=Hotel
TTITLE7=All The Phones Are Broken In This House, Sir
TTITLE8=It's Okay To Use The F-Word In A Break-Up Song
TTITLE9=16 Weeks
TTITLE10=Secret Track
EXTD=
EXTT0=
EXTT1=
EXTT2=
EXTT3=
EXTT4=
EXTT5=
EXTT6=
EXTT7=
EXTT8=
EXTT9=
EXTT10=
PLAYORDER=
